#N canvas 918 346 994 595 10;
#X obj 84 173 vsl 15 128 0 127 0 0 empty empty empty 0 -9 0 10 -262144
-1 -1 7617 1;
#X obj 84 454 ctlout 1 1;
#X obj 123 173 vsl 15 128 0 127 0 0 empty empty empty 0 -9 0 10 -262144
-1 -1 8635 1;
#X obj 103 173 vsl 15 128 0 127 0 0 empty empty empty 0 -9 0 10 -262144
-1 -1 5159 1;
#X obj 142 173 vsl 15 128 0 127 0 0 empty empty empty 0 -9 0 10 -262144
-1 -1 6177 1;
#X obj 161 173 vsl 15 128 0 127 0 0 empty empty empty 0 -9 0 10 -262144
-1 -1 10865 1;
#X obj 183 173 vsl 15 128 0 127 0 0 empty empty empty 0 -9 0 10 -262144
-1 -1 4869 1;
#X obj 103 435 ctlout 2 1;
#X obj 123 414 ctlout 3 1;
#X obj 142 394 ctlout 4 1;
#X obj 161 376 ctlout 5 1;
#X obj 183 356 ctlout 6 1;
#X obj 209 173 vsl 15 128 0 127 0 0 empty empty empty 0 -9 0 10 -262144
-1 -1 4814 1;
#X obj 231 173 vsl 15 128 0 127 0 0 empty empty empty 0 -9 0 10 -262144
-1 -1 1700 1;
#X obj 209 339 ctlout 7 1;
#X obj 231 319 ctlout 8 1;
#X obj 302 447 ctlout 1 2;
#X obj 78 -75 tgl 15 0 empty empty empty 17 7 0 10 -262144 -1 -1 1
1;
#N canvas 1371 177 450 300 ra 0;
#X obj 103 25 metro 500;
#X obj 103 146 line;
#X msg 103 123 \$1 \$2;
#X obj 103 74 random 128;
#X obj 103 100 pack f f;
#X obj 103 -9 inlet;
#X obj 103 170 outlet;
#X obj 175 74 random 2000;
#X connect 0 0 3 0;
#X connect 0 0 7 0;
#X connect 1 0 6 0;
#X connect 2 0 1 0;
#X connect 3 0 4 0;
#X connect 4 0 2 0;
#X connect 5 0 0 0;
#X connect 7 0 4 1;
#X restore 84 65 pd ra;
#N canvas 1371 177 450 300 ra 0;
#X obj 103 25 metro 500;
#X obj 103 146 line;
#X msg 103 123 \$1 \$2;
#X obj 103 74 random 128;
#X obj 103 100 pack f f;
#X obj 103 -9 inlet;
#X obj 103 170 outlet;
#X obj 175 74 random 2000;
#X connect 0 0 3 0;
#X connect 0 0 7 0;
#X connect 1 0 6 0;
#X connect 2 0 1 0;
#X connect 3 0 4 0;
#X connect 4 0 2 0;
#X connect 5 0 0 0;
#X connect 7 0 4 1;
#X restore 122 66 pd ra;
#N canvas 1371 177 450 300 ra 0;
#X obj 103 25 metro 500;
#X obj 103 146 line;
#X msg 103 123 \$1 \$2;
#X obj 103 74 random 128;
#X obj 103 100 pack f f;
#X obj 103 -9 inlet;
#X obj 103 170 outlet;
#X obj 175 74 random 2000;
#X connect 0 0 3 0;
#X connect 0 0 7 0;
#X connect 1 0 6 0;
#X connect 2 0 1 0;
#X connect 3 0 4 0;
#X connect 4 0 2 0;
#X connect 5 0 0 0;
#X connect 7 0 4 1;
#X restore 163 67 pd ra;
#N canvas 1371 177 450 300 ra 0;
#X obj 103 25 metro 500;
#X obj 103 146 line;
#X msg 103 123 \$1 \$2;
#X obj 103 74 random 128;
#X obj 103 100 pack f f;
#X obj 103 -9 inlet;
#X obj 103 170 outlet;
#X obj 175 74 random 2000;
#X connect 0 0 3 0;
#X connect 0 0 7 0;
#X connect 1 0 6 0;
#X connect 2 0 1 0;
#X connect 3 0 4 0;
#X connect 4 0 2 0;
#X connect 5 0 0 0;
#X connect 7 0 4 1;
#X restore 205 69 pd ra;
#N canvas 1371 177 450 300 ra 0;
#X obj 103 25 metro 500;
#X obj 103 146 line;
#X msg 103 123 \$1 \$2;
#X obj 103 74 random 128;
#X obj 103 100 pack f f;
#X obj 103 -9 inlet;
#X obj 103 170 outlet;
#X obj 175 74 random 2000;
#X connect 0 0 3 0;
#X connect 0 0 7 0;
#X connect 1 0 6 0;
#X connect 2 0 1 0;
#X connect 3 0 4 0;
#X connect 4 0 2 0;
#X connect 5 0 0 0;
#X connect 7 0 4 1;
#X restore 90 94 pd ra;
#N canvas 1371 177 450 300 ra 0;
#X obj 103 25 metro 500;
#X obj 103 146 line;
#X msg 103 123 \$1 \$2;
#X obj 103 74 random 128;
#X obj 103 100 pack f f;
#X obj 103 -9 inlet;
#X obj 103 170 outlet;
#X obj 175 74 random 2000;
#X connect 0 0 3 0;
#X connect 0 0 7 0;
#X connect 1 0 6 0;
#X connect 2 0 1 0;
#X connect 3 0 4 0;
#X connect 4 0 2 0;
#X connect 5 0 0 0;
#X connect 7 0 4 1;
#X restore 130 95 pd ra;
#N canvas 1371 177 450 300 ra 0;
#X obj 103 25 metro 500;
#X obj 103 146 line;
#X msg 103 123 \$1 \$2;
#X obj 103 74 random 128;
#X obj 103 100 pack f f;
#X obj 103 -9 inlet;
#X obj 103 170 outlet;
#X obj 175 74 random 2000;
#X connect 0 0 3 0;
#X connect 0 0 7 0;
#X connect 1 0 6 0;
#X connect 2 0 1 0;
#X connect 3 0 4 0;
#X connect 4 0 2 0;
#X connect 5 0 0 0;
#X connect 7 0 4 1;
#X restore 170 96 pd ra;
#N canvas 1371 177 450 300 ra 0;
#X obj 103 25 metro 500;
#X obj 103 146 line;
#X msg 103 123 \$1 \$2;
#X obj 103 74 random 128;
#X obj 103 100 pack f f;
#X obj 103 -9 inlet;
#X obj 103 170 outlet;
#X obj 175 74 random 2000;
#X connect 0 0 3 0;
#X connect 0 0 7 0;
#X connect 1 0 6 0;
#X connect 2 0 1 0;
#X connect 3 0 4 0;
#X connect 4 0 2 0;
#X connect 5 0 0 0;
#X connect 7 0 4 1;
#X restore 211 97 pd ra;
#X obj 302 164 vsl 15 128 0 127 0 0 empty empty empty 0 -9 0 10 -262144
-1 -1 4943 1;
#X obj 341 164 vsl 15 128 0 127 0 0 empty empty empty 0 -9 0 10 -262144
-1 -1 4393 1;
#X obj 321 164 vsl 15 128 0 127 0 0 empty empty empty 0 -9 0 10 -262144
-1 -1 11419 1;
#X obj 360 164 vsl 15 128 0 127 0 0 empty empty empty 0 -9 0 10 -262144
-1 -1 3400 1;
#X obj 379 164 vsl 15 128 0 127 0 0 empty empty empty 0 -9 0 10 -262144
-1 -1 4956 1;
#X obj 401 164 vsl 15 128 0 127 0 0 empty empty empty 0 -9 0 10 -262144
-1 -1 6000 1;
#X obj 427 164 vsl 15 128 0 127 0 0 empty empty empty 0 -9 0 10 -262144
-1 -1 10487 1;
#X obj 449 164 vsl 15 128 0 127 0 0 empty empty empty 0 -9 0 10 -262144
-1 -1 6108 1;
#X obj 305 -81 tgl 15 0 empty empty empty 17 7 0 10 -262144 -1 -1 1
1;
#N canvas 1371 177 450 300 ra 0;
#X obj 103 25 metro 500;
#X obj 103 146 line;
#X msg 103 123 \$1 \$2;
#X obj 103 74 random 128;
#X obj 103 100 pack f f;
#X obj 103 -9 inlet;
#X obj 103 170 outlet;
#X obj 175 74 random 2000;
#X connect 0 0 3 0;
#X connect 0 0 7 0;
#X connect 1 0 6 0;
#X connect 2 0 1 0;
#X connect 3 0 4 0;
#X connect 4 0 2 0;
#X connect 5 0 0 0;
#X connect 7 0 4 1;
#X restore 302 56 pd ra;
#N canvas 1371 177 450 300 ra 0;
#X obj 103 25 metro 500;
#X obj 103 146 line;
#X msg 103 123 \$1 \$2;
#X obj 103 74 random 128;
#X obj 103 100 pack f f;
#X obj 103 -9 inlet;
#X obj 103 170 outlet;
#X obj 175 74 random 2000;
#X connect 0 0 3 0;
#X connect 0 0 7 0;
#X connect 1 0 6 0;
#X connect 2 0 1 0;
#X connect 3 0 4 0;
#X connect 4 0 2 0;
#X connect 5 0 0 0;
#X connect 7 0 4 1;
#X restore 340 57 pd ra;
#N canvas 1371 177 450 300 ra 0;
#X obj 103 25 metro 500;
#X obj 103 146 line;
#X msg 103 123 \$1 \$2;
#X obj 103 74 random 128;
#X obj 103 100 pack f f;
#X obj 103 -9 inlet;
#X obj 103 170 outlet;
#X obj 175 74 random 2000;
#X connect 0 0 3 0;
#X connect 0 0 7 0;
#X connect 1 0 6 0;
#X connect 2 0 1 0;
#X connect 3 0 4 0;
#X connect 4 0 2 0;
#X connect 5 0 0 0;
#X connect 7 0 4 1;
#X restore 381 58 pd ra;
#N canvas 1371 177 450 300 ra 0;
#X obj 103 25 metro 500;
#X obj 103 146 line;
#X msg 103 123 \$1 \$2;
#X obj 103 74 random 128;
#X obj 103 100 pack f f;
#X obj 103 -9 inlet;
#X obj 103 170 outlet;
#X obj 175 74 random 2000;
#X connect 0 0 3 0;
#X connect 0 0 7 0;
#X connect 1 0 6 0;
#X connect 2 0 1 0;
#X connect 3 0 4 0;
#X connect 4 0 2 0;
#X connect 5 0 0 0;
#X connect 7 0 4 1;
#X restore 423 60 pd ra;
#N canvas 1371 177 450 300 ra 0;
#X obj 103 25 metro 500;
#X obj 103 146 line;
#X msg 103 123 \$1 \$2;
#X obj 103 74 random 128;
#X obj 103 100 pack f f;
#X obj 103 -9 inlet;
#X obj 103 170 outlet;
#X obj 175 74 random 2000;
#X connect 0 0 3 0;
#X connect 0 0 7 0;
#X connect 1 0 6 0;
#X connect 2 0 1 0;
#X connect 3 0 4 0;
#X connect 4 0 2 0;
#X connect 5 0 0 0;
#X connect 7 0 4 1;
#X restore 308 85 pd ra;
#N canvas 1371 177 450 300 ra 0;
#X obj 103 25 metro 500;
#X obj 103 146 line;
#X msg 103 123 \$1 \$2;
#X obj 103 74 random 128;
#X obj 103 100 pack f f;
#X obj 103 -9 inlet;
#X obj 103 170 outlet;
#X obj 175 74 random 2000;
#X connect 0 0 3 0;
#X connect 0 0 7 0;
#X connect 1 0 6 0;
#X connect 2 0 1 0;
#X connect 3 0 4 0;
#X connect 4 0 2 0;
#X connect 5 0 0 0;
#X connect 7 0 4 1;
#X restore 348 86 pd ra;
#N canvas 1371 177 450 300 ra 0;
#X obj 103 25 metro 500;
#X obj 103 146 line;
#X msg 103 123 \$1 \$2;
#X obj 103 74 random 128;
#X obj 103 100 pack f f;
#X obj 103 -9 inlet;
#X obj 103 170 outlet;
#X obj 175 74 random 2000;
#X connect 0 0 3 0;
#X connect 0 0 7 0;
#X connect 1 0 6 0;
#X connect 2 0 1 0;
#X connect 3 0 4 0;
#X connect 4 0 2 0;
#X connect 5 0 0 0;
#X connect 7 0 4 1;
#X restore 388 87 pd ra;
#N canvas 1371 177 450 300 ra 0;
#X obj 103 25 metro 500;
#X obj 103 146 line;
#X msg 103 123 \$1 \$2;
#X obj 103 74 random 128;
#X obj 103 100 pack f f;
#X obj 103 -9 inlet;
#X obj 103 170 outlet;
#X obj 175 74 random 2000;
#X connect 0 0 3 0;
#X connect 0 0 7 0;
#X connect 1 0 6 0;
#X connect 2 0 1 0;
#X connect 3 0 4 0;
#X connect 4 0 2 0;
#X connect 5 0 0 0;
#X connect 7 0 4 1;
#X restore 429 88 pd ra;
#X obj 552 430 ctlout 2 3;
#X obj 533 166 vsl 15 128 0 127 0 0 empty empty empty 0 -9 0 10 -262144
-1 -1 10300 1;
#X obj 572 166 vsl 15 128 0 127 0 0 empty empty empty 0 -9 0 10 -262144
-1 -1 3001 1;
#X obj 552 166 vsl 15 128 0 127 0 0 empty empty empty 0 -9 0 10 -262144
-1 -1 5657 1;
#X obj 591 166 vsl 15 128 0 127 0 0 empty empty empty 0 -9 0 10 -262144
-1 -1 3624 1;
#X obj 610 166 vsl 15 128 0 127 0 0 empty empty empty 0 -9 0 10 -262144
-1 -1 2793 1;
#X obj 632 166 vsl 15 128 0 127 0 0 empty empty empty 0 -9 0 10 -262144
-1 -1 2357 1;
#X obj 658 166 vsl 15 128 0 127 0 0 empty empty empty 0 -9 0 10 -262144
-1 -1 7652 1;
#X obj 680 166 vsl 15 128 0 127 0 0 empty empty empty 0 -9 0 10 -262144
-1 -1 4114 1;
#X obj 536 -79 tgl 15 0 empty empty empty 17 7 0 10 -262144 -1 -1 1
1;
#N canvas 1371 177 450 300 ra 0;
#X obj 103 25 metro 500;
#X obj 103 146 line;
#X msg 103 123 \$1 \$2;
#X obj 103 74 random 128;
#X obj 103 100 pack f f;
#X obj 103 -9 inlet;
#X obj 103 170 outlet;
#X obj 175 74 random 2000;
#X connect 0 0 3 0;
#X connect 0 0 7 0;
#X connect 1 0 6 0;
#X connect 2 0 1 0;
#X connect 3 0 4 0;
#X connect 4 0 2 0;
#X connect 5 0 0 0;
#X connect 7 0 4 1;
#X restore 533 58 pd ra;
#N canvas 1371 177 450 300 ra 0;
#X obj 103 25 metro 500;
#X obj 103 146 line;
#X msg 103 123 \$1 \$2;
#X obj 103 74 random 128;
#X obj 103 100 pack f f;
#X obj 103 -9 inlet;
#X obj 103 170 outlet;
#X obj 175 74 random 2000;
#X connect 0 0 3 0;
#X connect 0 0 7 0;
#X connect 1 0 6 0;
#X connect 2 0 1 0;
#X connect 3 0 4 0;
#X connect 4 0 2 0;
#X connect 5 0 0 0;
#X connect 7 0 4 1;
#X restore 571 59 pd ra;
#N canvas 1371 177 450 300 ra 0;
#X obj 103 25 metro 500;
#X obj 103 146 line;
#X msg 103 123 \$1 \$2;
#X obj 103 74 random 128;
#X obj 103 100 pack f f;
#X obj 103 -9 inlet;
#X obj 103 170 outlet;
#X obj 175 74 random 2000;
#X connect 0 0 3 0;
#X connect 0 0 7 0;
#X connect 1 0 6 0;
#X connect 2 0 1 0;
#X connect 3 0 4 0;
#X connect 4 0 2 0;
#X connect 5 0 0 0;
#X connect 7 0 4 1;
#X restore 612 60 pd ra;
#N canvas 1371 177 450 300 ra 0;
#X obj 103 25 metro 500;
#X obj 103 146 line;
#X msg 103 123 \$1 \$2;
#X obj 103 74 random 128;
#X obj 103 100 pack f f;
#X obj 103 -9 inlet;
#X obj 103 170 outlet;
#X obj 175 74 random 2000;
#X connect 0 0 3 0;
#X connect 0 0 7 0;
#X connect 1 0 6 0;
#X connect 2 0 1 0;
#X connect 3 0 4 0;
#X connect 4 0 2 0;
#X connect 5 0 0 0;
#X connect 7 0 4 1;
#X restore 654 62 pd ra;
#N canvas 1371 177 450 300 ra 0;
#X obj 103 25 metro 500;
#X obj 103 146 line;
#X msg 103 123 \$1 \$2;
#X obj 103 74 random 128;
#X obj 103 100 pack f f;
#X obj 103 -9 inlet;
#X obj 103 170 outlet;
#X obj 175 74 random 2000;
#X connect 0 0 3 0;
#X connect 0 0 7 0;
#X connect 1 0 6 0;
#X connect 2 0 1 0;
#X connect 3 0 4 0;
#X connect 4 0 2 0;
#X connect 5 0 0 0;
#X connect 7 0 4 1;
#X restore 539 87 pd ra;
#N canvas 1371 177 450 300 ra 0;
#X obj 103 25 metro 500;
#X obj 103 146 line;
#X msg 103 123 \$1 \$2;
#X obj 103 74 random 128;
#X obj 103 100 pack f f;
#X obj 103 -9 inlet;
#X obj 103 170 outlet;
#X obj 175 74 random 2000;
#X connect 0 0 3 0;
#X connect 0 0 7 0;
#X connect 1 0 6 0;
#X connect 2 0 1 0;
#X connect 3 0 4 0;
#X connect 4 0 2 0;
#X connect 5 0 0 0;
#X connect 7 0 4 1;
#X restore 579 88 pd ra;
#N canvas 1371 177 450 300 ra 0;
#X obj 103 25 metro 500;
#X obj 103 146 line;
#X msg 103 123 \$1 \$2;
#X obj 103 74 random 128;
#X obj 103 100 pack f f;
#X obj 103 -9 inlet;
#X obj 103 170 outlet;
#X obj 175 74 random 2000;
#X connect 0 0 3 0;
#X connect 0 0 7 0;
#X connect 1 0 6 0;
#X connect 2 0 1 0;
#X connect 3 0 4 0;
#X connect 4 0 2 0;
#X connect 5 0 0 0;
#X connect 7 0 4 1;
#X restore 619 89 pd ra;
#N canvas 1371 177 450 300 ra 0;
#X obj 103 25 metro 500;
#X obj 103 146 line;
#X msg 103 123 \$1 \$2;
#X obj 103 74 random 128;
#X obj 103 100 pack f f;
#X obj 103 -9 inlet;
#X obj 103 170 outlet;
#X obj 175 74 random 2000;
#X connect 0 0 3 0;
#X connect 0 0 7 0;
#X connect 1 0 6 0;
#X connect 2 0 1 0;
#X connect 3 0 4 0;
#X connect 4 0 2 0;
#X connect 5 0 0 0;
#X connect 7 0 4 1;
#X restore 660 90 pd ra;
#X obj 321 428 ctlout 2 2;
#X obj 341 407 ctlout 3 2;
#X obj 360 387 ctlout 4 2;
#X obj 379 369 ctlout 5 2;
#X obj 401 349 ctlout 6 2;
#X obj 427 332 ctlout 7 2;
#X obj 449 312 ctlout 8 2;
#X obj 533 449 ctlout 1 3;
#X obj 572 409 ctlout 3 3;
#X obj 591 389 ctlout 4 3;
#X obj 610 371 ctlout 5 3;
#X obj 632 351 ctlout 6 3;
#X obj 658 334 ctlout 7 3;
#X obj 680 314 ctlout 8 3;
#X obj 776 177 vsl 15 128 0 127 0 0 empty empty empty 0 -9 0 10 -262144
-1 -1 3489 1;
#X obj 815 177 vsl 15 128 0 127 0 0 empty empty empty 0 -9 0 10 -262144
-1 -1 8346 1;
#X obj 795 177 vsl 15 128 0 127 0 0 empty empty empty 0 -9 0 10 -262144
-1 -1 4740 1;
#X obj 834 177 vsl 15 128 0 127 0 0 empty empty empty 0 -9 0 10 -262144
-1 -1 4998 1;
#X obj 853 177 vsl 15 128 0 127 0 0 empty empty empty 0 -9 0 10 -262144
-1 -1 4257 1;
#X obj 875 177 vsl 15 128 0 127 0 0 empty empty empty 0 -9 0 10 -262144
-1 -1 6670 1;
#X obj 901 177 vsl 15 128 0 127 0 0 empty empty empty 0 -9 0 10 -262144
-1 -1 3132 1;
#X obj 923 177 vsl 15 128 0 127 0 0 empty empty empty 0 -9 0 10 -262144
-1 -1 4956 1;
#X obj 779 -68 tgl 15 0 empty empty empty 17 7 0 10 -262144 -1 -1 1
1;
#N canvas 1371 177 450 300 ra 0;
#X obj 103 25 metro 500;
#X obj 103 146 line;
#X msg 103 123 \$1 \$2;
#X obj 103 74 random 128;
#X obj 103 100 pack f f;
#X obj 103 -9 inlet;
#X obj 103 170 outlet;
#X obj 175 74 random 2000;
#X connect 0 0 3 0;
#X connect 0 0 7 0;
#X connect 1 0 6 0;
#X connect 2 0 1 0;
#X connect 3 0 4 0;
#X connect 4 0 2 0;
#X connect 5 0 0 0;
#X connect 7 0 4 1;
#X restore 776 69 pd ra;
#N canvas 1371 177 450 300 ra 0;
#X obj 103 25 metro 500;
#X obj 103 146 line;
#X msg 103 123 \$1 \$2;
#X obj 103 74 random 128;
#X obj 103 100 pack f f;
#X obj 103 -9 inlet;
#X obj 103 170 outlet;
#X obj 175 74 random 2000;
#X connect 0 0 3 0;
#X connect 0 0 7 0;
#X connect 1 0 6 0;
#X connect 2 0 1 0;
#X connect 3 0 4 0;
#X connect 4 0 2 0;
#X connect 5 0 0 0;
#X connect 7 0 4 1;
#X restore 814 70 pd ra;
#N canvas 1371 177 450 300 ra 0;
#X obj 103 25 metro 500;
#X obj 103 146 line;
#X msg 103 123 \$1 \$2;
#X obj 103 74 random 128;
#X obj 103 100 pack f f;
#X obj 103 -9 inlet;
#X obj 103 170 outlet;
#X obj 175 74 random 2000;
#X connect 0 0 3 0;
#X connect 0 0 7 0;
#X connect 1 0 6 0;
#X connect 2 0 1 0;
#X connect 3 0 4 0;
#X connect 4 0 2 0;
#X connect 5 0 0 0;
#X connect 7 0 4 1;
#X restore 855 71 pd ra;
#N canvas 1371 177 450 300 ra 0;
#X obj 103 25 metro 500;
#X obj 103 146 line;
#X msg 103 123 \$1 \$2;
#X obj 103 74 random 128;
#X obj 103 100 pack f f;
#X obj 103 -9 inlet;
#X obj 103 170 outlet;
#X obj 175 74 random 2000;
#X connect 0 0 3 0;
#X connect 0 0 7 0;
#X connect 1 0 6 0;
#X connect 2 0 1 0;
#X connect 3 0 4 0;
#X connect 4 0 2 0;
#X connect 5 0 0 0;
#X connect 7 0 4 1;
#X restore 897 73 pd ra;
#N canvas 1371 177 450 300 ra 0;
#X obj 103 25 metro 500;
#X obj 103 146 line;
#X msg 103 123 \$1 \$2;
#X obj 103 74 random 128;
#X obj 103 100 pack f f;
#X obj 103 -9 inlet;
#X obj 103 170 outlet;
#X obj 175 74 random 2000;
#X connect 0 0 3 0;
#X connect 0 0 7 0;
#X connect 1 0 6 0;
#X connect 2 0 1 0;
#X connect 3 0 4 0;
#X connect 4 0 2 0;
#X connect 5 0 0 0;
#X connect 7 0 4 1;
#X restore 782 98 pd ra;
#N canvas 1371 177 450 300 ra 0;
#X obj 103 25 metro 500;
#X obj 103 146 line;
#X msg 103 123 \$1 \$2;
#X obj 103 74 random 128;
#X obj 103 100 pack f f;
#X obj 103 -9 inlet;
#X obj 103 170 outlet;
#X obj 175 74 random 2000;
#X connect 0 0 3 0;
#X connect 0 0 7 0;
#X connect 1 0 6 0;
#X connect 2 0 1 0;
#X connect 3 0 4 0;
#X connect 4 0 2 0;
#X connect 5 0 0 0;
#X connect 7 0 4 1;
#X restore 822 99 pd ra;
#N canvas 1371 177 450 300 ra 0;
#X obj 103 25 metro 500;
#X obj 103 146 line;
#X msg 103 123 \$1 \$2;
#X obj 103 74 random 128;
#X obj 103 100 pack f f;
#X obj 103 -9 inlet;
#X obj 103 170 outlet;
#X obj 175 74 random 2000;
#X connect 0 0 3 0;
#X connect 0 0 7 0;
#X connect 1 0 6 0;
#X connect 2 0 1 0;
#X connect 3 0 4 0;
#X connect 4 0 2 0;
#X connect 5 0 0 0;
#X connect 7 0 4 1;
#X restore 862 100 pd ra;
#N canvas 1371 177 450 300 ra 0;
#X obj 103 25 metro 500;
#X obj 103 146 line;
#X msg 103 123 \$1 \$2;
#X obj 103 74 random 128;
#X obj 103 100 pack f f;
#X obj 103 -9 inlet;
#X obj 103 170 outlet;
#X obj 175 74 random 2000;
#X connect 0 0 3 0;
#X connect 0 0 7 0;
#X connect 1 0 6 0;
#X connect 2 0 1 0;
#X connect 3 0 4 0;
#X connect 4 0 2 0;
#X connect 5 0 0 0;
#X connect 7 0 4 1;
#X restore 903 101 pd ra;
#X obj 776 460 ctlout 1 4;
#X obj 795 441 ctlout 2 4;
#X obj 815 420 ctlout 3 4;
#X obj 834 400 ctlout 4 4;
#X obj 853 382 ctlout 5 4;
#X obj 875 362 ctlout 6 4;
#X obj 901 345 ctlout 7 4;
#X obj 923 325 ctlout 8 4;
#X obj 618 -42 ctlout 1 5;
#X msg 618 -70 100;
#X msg 694 -70 100;
#X obj 694 -42 ctlout 2 5;
#X msg 625 -17 100;
#X obj 625 11 ctlout 3 5;
#X msg 700 -17 100;
#X obj 700 11 ctlout 4 5;
#X connect 0 0 1 0;
#X connect 2 0 8 0;
#X connect 3 0 7 0;
#X connect 4 0 9 0;
#X connect 5 0 10 0;
#X connect 6 0 11 0;
#X connect 12 0 14 0;
#X connect 13 0 15 0;
#X connect 17 0 18 0;
#X connect 17 0 19 0;
#X connect 17 0 20 0;
#X connect 17 0 21 0;
#X connect 17 0 22 0;
#X connect 17 0 23 0;
#X connect 17 0 24 0;
#X connect 17 0 25 0;
#X connect 18 0 0 0;
#X connect 19 0 2 0;
#X connect 20 0 5 0;
#X connect 21 0 12 0;
#X connect 22 0 3 0;
#X connect 23 0 4 0;
#X connect 24 0 6 0;
#X connect 25 0 13 0;
#X connect 26 0 16 0;
#X connect 27 0 62 0;
#X connect 28 0 61 0;
#X connect 29 0 63 0;
#X connect 30 0 64 0;
#X connect 31 0 65 0;
#X connect 32 0 66 0;
#X connect 33 0 67 0;
#X connect 34 0 35 0;
#X connect 34 0 36 0;
#X connect 34 0 37 0;
#X connect 34 0 38 0;
#X connect 34 0 39 0;
#X connect 34 0 40 0;
#X connect 34 0 41 0;
#X connect 34 0 42 0;
#X connect 35 0 26 0;
#X connect 36 0 27 0;
#X connect 37 0 30 0;
#X connect 38 0 32 0;
#X connect 39 0 28 0;
#X connect 40 0 29 0;
#X connect 41 0 31 0;
#X connect 42 0 33 0;
#X connect 44 0 68 0;
#X connect 45 0 69 0;
#X connect 46 0 43 0;
#X connect 47 0 70 0;
#X connect 48 0 71 0;
#X connect 49 0 72 0;
#X connect 50 0 73 0;
#X connect 51 0 74 0;
#X connect 52 0 53 0;
#X connect 52 0 54 0;
#X connect 52 0 55 0;
#X connect 52 0 56 0;
#X connect 52 0 57 0;
#X connect 52 0 58 0;
#X connect 52 0 59 0;
#X connect 52 0 60 0;
#X connect 53 0 44 0;
#X connect 54 0 45 0;
#X connect 55 0 48 0;
#X connect 56 0 50 0;
#X connect 57 0 46 0;
#X connect 58 0 47 0;
#X connect 59 0 49 0;
#X connect 60 0 51 0;
#X connect 75 0 92 0;
#X connect 76 0 94 0;
#X connect 77 0 93 0;
#X connect 78 0 95 0;
#X connect 79 0 96 0;
#X connect 80 0 97 0;
#X connect 81 0 98 0;
#X connect 82 0 99 0;
#X connect 83 0 84 0;
#X connect 83 0 85 0;
#X connect 83 0 86 0;
#X connect 83 0 87 0;
#X connect 83 0 88 0;
#X connect 83 0 89 0;
#X connect 83 0 90 0;
#X connect 83 0 91 0;
#X connect 84 0 75 0;
#X connect 85 0 76 0;
#X connect 86 0 79 0;
#X connect 87 0 81 0;
#X connect 88 0 77 0;
#X connect 89 0 78 0;
#X connect 90 0 80 0;
#X connect 91 0 82 0;
#X connect 101 0 100 0;
#X connect 102 0 103 0;
#X connect 104 0 105 0;
#X connect 106 0 107 0;
