#N canvas 488 493 682 472 10;
#X floatatom 121 102 5 20 200 1 BPM - -;
#X obj 271 59 loadbang;
#X obj 162 175 metro;
#X obj 102 102 tgl 15 0 empty empty empty 17 7 0 10 -262144 -1 -1 1
1;
#N canvas 657 451 688 577 subdivide 0;
#X text 412 228 quarter (1);
#X text 412 189 half (2);
#X obj 273 186 * 32;
#X obj 273 127 * 128;
#X obj 273 147 * 64;
#X text 410 209 dotted quarter (1.5);
#X obj 274 228 * 16;
#X obj 276 270 * 8;
#X obj 276 310 * 4;
#X obj 276 330 * 2;
#X floatatom 373 127 5 0 0 0 - - -;
#X floatatom 373 146 5 0 0 0 - - -;
#X floatatom 373 249 5 0 0 0 - - -;
#X floatatom 373 167 5 0 0 0 - - -;
#X floatatom 371 188 5 0 0 0 - - -;
#X floatatom 371 227 5 0 0 0 - - -;
#X floatatom 373 270 5 0 0 0 - - -;
#X floatatom 371 313 5 0 0 0 - - -;
#X floatatom 371 333 5 0 0 0 - - -;
#X obj 276 353 * 1;
#X floatatom 371 355 5 0 0 0 - - -;
#X text 410 126 two whole measures (8);
#X text 412 271 eigth 1/8;
#X text 408 314 sixteenth 1/16;
#X text 409 333 thirtysecond 1/32;
#X text 411 354 sixtyfourth 1/64;
#X floatatom 369 209 5 0 0 0 - - -;
#X text 410 166 dotted half (3);
#X obj 273 166 * 48;
#X text 413 249 triplet (.333333);
#X text 411 146 whole measure (4);
#X obj 275 249 expr ($f1*32)/3;
#X obj 273 207 * 24;
#X obj 276 290 expr ($f1*16)/3;
#X floatatom 372 290 5 0 0 0 - - -;
#X text 416 289 8th note triplet;
#X obj 138 432 pack f f f f f f f f f f f f;
#X obj 138 460 outlet;
#X obj 91 16 inlet;
#X obj 91 60 expr 60000/$f1;
#X obj 91 39 * 16;
#X obj 91 460 outlet;
#X obj 91 84 t f f f f f f f f f f f f f;
#X text 184 461 a list of 12 common note lengths (save this for later)
;
#X text 29 460 1/64 note;
#X text 588 94 N of nls;
#X text 602 129 1;
#X text 601 146 2;
#X text 601 167 3;
#X text 601 185 4;
#X text 601 205 5;
#X text 599 228 6;
#X text 599 252 7;
#X text 600 272 8;
#X text 601 292 9;
#X text 597 313 10;
#X text 598 332 11;
#X text 598 352 12;
#X text 420 90 name of note;
#X text 503 47 (length) (in) (1/4 notes);
#X connect 2 0 14 0;
#X connect 2 0 36 3;
#X connect 3 0 10 0;
#X connect 3 0 36 0;
#X connect 4 0 11 0;
#X connect 4 0 36 1;
#X connect 6 0 15 0;
#X connect 6 0 36 5;
#X connect 7 0 16 0;
#X connect 7 0 36 7;
#X connect 8 0 17 0;
#X connect 8 0 36 9;
#X connect 9 0 18 0;
#X connect 9 0 36 10;
#X connect 19 0 20 0;
#X connect 19 0 36 11;
#X connect 28 0 13 0;
#X connect 28 0 36 2;
#X connect 31 0 12 0;
#X connect 31 0 36 6;
#X connect 32 0 26 0;
#X connect 32 0 36 4;
#X connect 33 0 34 0;
#X connect 33 0 36 8;
#X connect 36 0 37 0;
#X connect 38 0 40 0;
#X connect 39 0 42 0;
#X connect 40 0 39 0;
#X connect 42 0 41 0;
#X connect 42 1 3 0;
#X connect 42 2 4 0;
#X connect 42 3 28 0;
#X connect 42 4 2 0;
#X connect 42 5 32 0;
#X connect 42 6 6 0;
#X connect 42 7 31 0;
#X connect 42 8 7 0;
#X connect 42 9 33 0;
#X connect 42 10 8 0;
#X connect 42 11 9 0;
#X connect 42 12 19 0;
#X restore 190 152 pd subdivide;
#X text 199 175 1/64th note;
#X msg 117 176 reset;
#X obj 162 224 mod 16;
#X obj 162 247 sel 0;
#X obj 162 296 + 1;
#X floatatom 102 119 5 0 0 1 beat - -;
#X obj 162 273 count 4;
#X obj 162 199 count 64;
#X obj 283 296 s beat64;
#X obj 284 218 s nls;
#X msg 284 178 list \$1 \$2 \$3 \$4 \$5 \$6 \$7 \$8 \$9 \$10 \$11 \$12
;
#X text 331 268 list of note lengths;
#X text 345 296 current beat count (1/64);
#X msg 271 79 100;
#X obj 346 102 count 128;
#X obj 346 125 + 1;
#X floatatom 165 117 5 0 0 0 - - -;
#X obj 44 303 s songtime;
#X connect 0 0 4 0;
#X connect 1 0 18 0;
#X connect 2 0 12 0;
#X connect 3 0 2 0;
#X connect 3 0 6 0;
#X connect 4 0 2 1;
#X connect 4 1 15 0;
#X connect 6 0 11 0;
#X connect 6 0 12 0;
#X connect 6 0 19 0;
#X connect 7 0 8 0;
#X connect 8 0 11 0;
#X connect 9 0 10 0;
#X connect 10 0 19 0;
#X connect 11 0 9 0;
#X connect 12 0 7 0;
#X connect 12 0 13 0;
#X connect 15 0 14 0;
#X connect 18 0 0 0;
#X connect 19 0 20 0;
#X connect 20 0 21 0;
#X connect 21 0 22 0;
#X coords 0 -1 1 1 100 35 2 100 100;
