#N canvas 639 185 1122 673 10;
#X obj 105 268 makenote;
#X obj 105 307 noteout 1;
#X obj -105 16 allnotelengths;
#X obj 105 38 r beat64;
#X obj 105 79 spigot;
#X obj 162 63 tgl 15 0 empty empty empty 17 7 0 10 -262144 -1 -1 1
1;
#X obj 162 37 r creepysynth;
#X obj 199 94 r nls;
#X obj 217 116 t b f;
#X obj 199 139 zl nth 0;
#X floatatom 199 164 5 0 0 0 - - -;
#X obj 238 73 loadbang;
#X obj 105 103 euclid 1 0 64;
#X msg 238 94 1;
#X msg 28 124 set 0;
#X obj 105 183 t b;
#X obj 105 139 t 1;
#X obj 105 209 random 50;
#X obj 105 162 cycle 4;
#X obj 199 186 * 4;
#X obj 425 44 r beat64;
#X obj 458 64 tgl 15 0 empty empty empty 17 7 0 10 -262144 -1 -1 1
1;
#X obj 425 84 spigot;
#X obj 452 155 sel 0;
#X obj 425 427 makenote;
#X obj 452 132 % 16;
#X obj 425 301 % 16;
#X obj 425 110 t f f;
#X obj 452 221 t b f;
#X obj 452 275 zl nth;
#X obj 425 324 sel 0;
#X obj 452 196 + 1;
#X obj 493 309 r nls;
#X obj 511 330 t b f;
#X obj 493 353 zl nth 0;
#X floatatom 494 379 5 0 0 0 - - -;
#X msg 452 249 2 4 8 11 12 13 16 24 32 64;
#X obj 425 402 pack f 120 f;
#X obj 425 348 random 40;
#X obj 425 374 + 70;
#X obj 452 176 random 10;
#X obj 425 454 noteout 2;
#X obj 490 47 r chimes;
#X obj 696 59 r beat64;
#X obj 729 79 tgl 15 0 empty empty empty 17 7 0 10 -262144 -1 -1 1
1;
#X obj 696 99 spigot;
#X obj 696 442 makenote;
#X obj 696 339 sel 0;
#X obj 764 324 r nls;
#X obj 782 345 t b f;
#X obj 764 368 zl nth 0;
#X floatatom 765 394 5 0 0 0 - - -;
#X obj 696 417 pack f 120 f;
#X obj 761 61 r bass;
#X obj 696 469 noteout 3;
#X obj 696 316 % 24;
#X msg 786 239 32;
#X obj 724 190 random 3;
#X obj 724 212 sel 0 1 2;
#X msg 724 238 16;
#X msg 755 238 24;
#X obj 723 146 % 16;
#X obj 696 125 t f f;
#X obj 724 166 sel 0;
#X obj 696 363 random 24;
#X obj 813 325 + 3;
#X obj 696 388 + 40;
#X obj 105 231 pack f 120 f;
#X obj 219 212 r beat64;
#X obj 252 232 tgl 15 0 empty empty empty 17 7 0 10 -262144 -1 -1 1
1;
#X obj 219 252 spigot;
#X obj 246 323 sel 0;
#X obj 219 595 makenote;
#X obj 246 300 % 16;
#X obj 219 469 % 16;
#X obj 219 278 t f f;
#X obj 246 389 t b f;
#X obj 246 443 zl nth;
#X obj 219 492 sel 0;
#X obj 246 364 + 1;
#X obj 287 477 r nls;
#X obj 305 498 t b f;
#X obj 287 521 zl nth 0;
#X floatatom 288 547 5 0 0 0 - - -;
#X msg 246 417 2 4 8 11 12 13 16 24 32 64;
#X obj 219 570 pack f 120 f;
#X obj 219 516 random 40;
#X obj 219 542 + 70;
#X obj 246 344 random 10;
#X obj 219 622 noteout 4;
#X obj 284 215 r melody;
#X connect 0 0 1 0;
#X connect 0 1 1 1;
#X connect 3 0 4 0;
#X connect 4 0 12 0;
#X connect 5 0 4 1;
#X connect 6 0 5 0;
#X connect 7 0 9 0;
#X connect 8 0 9 0;
#X connect 8 1 9 1;
#X connect 9 0 10 0;
#X connect 10 0 19 0;
#X connect 11 0 13 0;
#X connect 12 0 16 0;
#X connect 13 0 8 0;
#X connect 14 0 18 0;
#X connect 15 0 17 0;
#X connect 16 0 18 0;
#X connect 17 0 67 0;
#X connect 18 0 15 0;
#X connect 19 0 67 2;
#X connect 20 0 22 0;
#X connect 21 0 22 1;
#X connect 22 0 27 0;
#X connect 23 0 40 0;
#X connect 24 0 41 0;
#X connect 24 1 41 1;
#X connect 25 0 23 0;
#X connect 26 0 30 0;
#X connect 27 0 26 0;
#X connect 27 1 25 0;
#X connect 28 0 36 0;
#X connect 28 1 29 1;
#X connect 29 0 26 1;
#X connect 30 0 38 0;
#X connect 31 0 28 0;
#X connect 31 0 33 0;
#X connect 32 0 34 0;
#X connect 33 0 34 0;
#X connect 33 1 34 1;
#X connect 34 0 35 0;
#X connect 35 0 37 2;
#X connect 36 0 29 0;
#X connect 37 0 24 0;
#X connect 38 0 39 0;
#X connect 39 0 37 0;
#X connect 40 0 31 0;
#X connect 42 0 21 0;
#X connect 43 0 45 0;
#X connect 44 0 45 1;
#X connect 45 0 62 0;
#X connect 46 0 54 0;
#X connect 46 1 54 1;
#X connect 47 0 64 0;
#X connect 48 0 50 0;
#X connect 49 0 50 0;
#X connect 49 1 50 1;
#X connect 50 0 51 0;
#X connect 51 0 52 2;
#X connect 52 0 46 0;
#X connect 53 0 44 0;
#X connect 55 0 47 0;
#X connect 56 0 55 1;
#X connect 57 0 58 0;
#X connect 57 0 65 0;
#X connect 58 0 59 0;
#X connect 58 1 60 0;
#X connect 58 2 56 0;
#X connect 59 0 55 1;
#X connect 60 0 55 1;
#X connect 61 0 63 0;
#X connect 62 0 55 0;
#X connect 62 1 61 0;
#X connect 63 0 57 0;
#X connect 64 0 66 0;
#X connect 65 0 49 0;
#X connect 66 0 52 0;
#X connect 67 0 0 0;
#X connect 68 0 70 0;
#X connect 69 0 70 1;
#X connect 70 0 75 0;
#X connect 71 0 88 0;
#X connect 72 0 89 0;
#X connect 72 1 89 1;
#X connect 73 0 71 0;
#X connect 74 0 78 0;
#X connect 75 0 74 0;
#X connect 75 1 73 0;
#X connect 76 0 84 0;
#X connect 76 1 77 1;
#X connect 77 0 74 1;
#X connect 78 0 86 0;
#X connect 79 0 76 0;
#X connect 79 0 81 0;
#X connect 80 0 82 0;
#X connect 81 0 82 0;
#X connect 81 1 82 1;
#X connect 82 0 83 0;
#X connect 83 0 85 2;
#X connect 84 0 77 0;
#X connect 85 0 72 0;
#X connect 86 0 87 0;
#X connect 87 0 85 0;
#X connect 88 0 79 0;
#X connect 90 0 69 0;
