#N canvas 317 27 1502 936 10;
#X obj 623 68 r beat64;
#X obj -115 6 allnotelengths;
#X floatatom 648 179 5 0 32 1 Desired_hits - -;
#X obj 623 325 makenote;
#X obj 623 351 noteout 1;
#N canvas 0 0 450 300 (subpatch) 0;
#X array NLconv 32 float 3;
#A 0 0.621091 2.46726 4.35356 4.35356 6.32013 7.28334 8.4071 8.32683
8.2867 8.2867 8.32683 8.36697 8.4071 8.36697 8.36697 8.32683 10.3737
10.4138 10.3737 11.4573 11.4172 11.4172 11.3771 11.3771 11.2968 11.3369
11.4172 11.4573 11.4172 11.3369 11.3369 11.3369;
#X coords 0 12 32 0 50 50 1 0 0;
#X restore -6 14 graph;
#X obj 623 202 euclid 0 0 64;
#X obj 623 227 random 60;
#X obj 623 249 + 30;
#X obj 623 294 pack f 120 f;
#X obj 415 84 r beat64;
#X obj 415 234 makenote;
#X obj 415 258 noteout 2;
#X obj 415 205 pack f 120 f;
#X obj 415 155 euclid 1 0 64;
#X msg 415 180 36;
#X msg 319 178 stop;
#X obj 319 83 r beat64;
#X obj 319 111 euclid 8 0 64;
#X obj 319 134 random 8;
#X obj 319 155 sel 0;
#X text 569 728 just for wah wah filter control :(;
#X obj 936 323 r beat64;
#X obj 936 449 makenote;
#X obj 936 418 pack f 120 f;
#X obj 936 475 noteout 5;
#X msg 936 395 36;
#X obj 936 370 euclid 1 0 64;
#X obj 448 105 tgl 15 0 empty empty empty 17 7 0 10 -262144 -1 -1 1
1;
#X obj 415 125 spigot;
#X obj 656 89 tgl 15 0 empty empty empty 17 7 0 10 -262144 -1 -1 1
1;
#X obj 623 108 spigot;
#N canvas 510 332 450 300 ra6 0;
#X obj 172 37 inlet;
#X obj 172 260 outlet;
#X obj 174 140 sel 0 1 2 3 4;
#X msg 237 164 16;
#X msg 250 191 32;
#X obj 174 120 random 6;
#X msg 205 162 8;
#X msg 174 164 4;
#X msg 187 188 8;
#X msg 220 189 16;
#X obj 174 225 f;
#X obj 174 97 euclid 16 0 64;
#X connect 0 0 11 0;
#X connect 2 0 7 0;
#X connect 2 1 8 0;
#X connect 2 2 6 0;
#X connect 2 3 9 0;
#X connect 2 4 3 0;
#X connect 2 5 4 0;
#X connect 3 0 10 0;
#X connect 4 0 10 0;
#X connect 5 0 2 0;
#X connect 6 0 10 0;
#X connect 7 0 10 0;
#X connect 8 0 10 0;
#X connect 9 0 10 0;
#X connect 10 0 1 0;
#X connect 11 0 5 0;
#X restore 648 155 pd ra6;
#N canvas 668 420 450 300 nlc 0;
#X floatatom 81 85 5 0 12 0 - - -;
#X obj 63 66 r nls;
#X floatatom 63 150 5 0 0 0 - - -;
#X obj 81 105 t b f;
#X obj 63 128 zl nth 0;
#X text 99 152 note lengths;
#X obj 81 43 tabread NLconv;
#X obj 63 186 outlet;
#X obj 81 15 inlet;
#X text 188 42 convert desired hits to notelength;
#X connect 0 0 3 0;
#X connect 1 0 4 0;
#X connect 2 0 7 0;
#X connect 3 0 4 0;
#X connect 3 1 4 1;
#X connect 4 0 2 0;
#X connect 6 0 0 0;
#X connect 8 0 6 0;
#X restore 692 271 pd nlc;
#N canvas 801 371 450 300 wholenotelength 0;
#X obj 146 10 r nls;
#X floatatom 146 118 5 0 0 0 - - -;
#X obj 164 73 t b f;
#X obj 146 96 zl nth 0;
#X text 182 117 note lengths;
#X msg 164 53 1;
#X obj 146 146 outlet;
#X connect 0 0 3 0;
#X connect 0 0 5 0;
#X connect 1 0 6 0;
#X connect 2 0 3 0;
#X connect 2 1 3 1;
#X connect 3 0 1 0;
#X connect 5 0 2 0;
#X restore 484 183 pd wholenotelength;
#N canvas 801 371 450 300 wholenotelength 0;
#X obj 146 10 r nls;
#X floatatom 146 118 5 0 0 0 - - -;
#X obj 164 73 t b f;
#X obj 146 96 zl nth 0;
#X text 182 117 note lengths;
#X msg 164 53 1;
#X obj 146 146 outlet;
#X connect 0 0 3 0;
#X connect 0 0 5 0;
#X connect 1 0 6 0;
#X connect 2 0 3 0;
#X connect 2 1 3 1;
#X connect 3 0 1 0;
#X connect 5 0 2 0;
#X restore 1005 396 pd wholenotelength;
#X text 940 303 Guitar;
#X obj 929 700 ctlout 2 1;
#X obj 1008 700 ctlout 3 1;
#X obj 1086 701 ctlout 4 1;
#X obj 1000 328 tgl 15 0 empty empty empty 17 7 0 10 -262144 -1 -1
1 1;
#X obj 935 345 spigot;
#X obj 932 528 r beat64;
#X obj 932 569 spigot;
#X obj 962 549 tgl 15 0 empty empty empty 17 7 0 10 -262144 -1 -1 0
1;
#X obj 932 593 euclid 2 0 64;
#X obj 933 642 pack f f;
#X obj 1006 617 random 128;
#X obj 933 665 route 0 1 2;
#X obj 932 618 random 6;
#X obj 1170 702 ctlout 5 1;
#X msg 1170 671 0;
#X msg 1199 670 100;
#X text 1176 723 on/off delay unit;
#X text 930 723 L \, L+R \, and R delay units' time amount;
#X obj 1170 638 sel 0 1;
#X obj 623 131 t f f;
#X text 684 228 range of available midi notes;
#X text 660 248 scale midi notes to taste;
#X obj 133 403 r beat64;
#X obj 166 423 tgl 15 0 empty empty empty 17 7 0 10 -262144 -1 -1 1
1;
#X obj 133 443 spigot;
#X obj 160 514 sel 0;
#X obj 133 786 makenote;
#X obj 133 813 noteout 6;
#X obj 160 491 % 16;
#X obj 133 660 % 16;
#X obj 133 469 t f f;
#X obj 160 580 t b f;
#X obj 160 634 zl nth;
#X floatatom 199 659 5 0 0 0 - - -;
#X obj 133 683 sel 0;
#X obj 160 555 + 1;
#X obj 284 652 r nls;
#X obj 302 673 t b f;
#X obj 284 696 zl nth 0;
#X obj 200 700 random 12;
#X obj 199 680 t b;
#X floatatom 285 722 5 0 0 0 - - -;
#X msg 160 608 2 4 8 11 12 13 16 24 32 64;
#X text 136 364 plucked synth;
#X obj 133 761 pack f 120 f;
#X obj 14 776 makenote;
#X obj 14 751 pack f 120 f;
#X obj 14 803 noteout 7;
#X obj 14 727 + 5;
#X text 11 823 harmony;
#X obj 133 707 random 40;
#X obj 133 733 + 70;
#X obj 433 509 sel 0;
#X obj 406 781 makenote;
#X obj 433 486 % 16;
#X obj 406 655 % 16;
#X obj 406 464 t f f;
#X obj 433 575 t b f;
#X obj 433 629 zl nth;
#X floatatom 665 468 5 0 0 0 - - -;
#X obj 406 678 sel 0;
#X obj 433 550 + 1;
#X obj 474 664 r nls;
#X obj 492 685 t b f;
#X obj 474 708 zl nth 0;
#X obj 666 509 random 12;
#X obj 665 489 t b;
#X floatatom 475 734 5 0 0 0 - - -;
#X obj 406 756 pack f 120 f;
#X obj 406 808 noteout 4;
#X obj 406 389 r beat64;
#X obj 440 409 tgl 15 0 empty empty empty 17 7 0 10 -262144 -1 -1 0
1;
#X obj 406 426 spigot;
#X obj 406 728 + 36;
#X obj 406 702 random 8;
#X obj 160 535 random 10;
#X msg 433 603 8 11 12 13 16 24 32 64;
#X obj 433 530 random 8;
#X obj 647 532 r nls;
#X obj 665 553 t b f;
#X obj 647 576 zl nth 0;
#X floatatom 647 600 5 0 0 0 - - -;
#X obj 602 663 line;
#X obj 602 637 pack f f;
#X obj 582 588 cycle 2;
#X msg 582 610 0;
#X msg 621 611 1;
#X obj 602 686 * 128;
#X obj 602 713 ctlout 1 1;
#X text 406 366 air synth;
#X obj -121 263 r songtime;
#X msg -121 405 \; guitar 1;
#X obj 1033 309 r guitar;
#X msg -84 360 \; auxperc 1;
#X obj 690 71 r auxperc;
#X msg -66 340 \; drums 1;
#X obj 482 85 r drums;
#X msg -73 435 \; plucked 1;
#X obj 198 405 r plucked;
#X obj 468 395 r airsynth;
#X obj 1043 527 r gdelay;
#X obj -121 290 spigot;
#X obj -45 265 tgl 15 0 empty empty empty 17 7 0 10 -262144 -1 -1 1
1;
#X obj 520 668 + 1;
#X obj 520 646 random 6;
#X obj 85 80 r beat64;
#X obj 84 117 euclid 2 0 64;
#X obj 84 256 noteout 8;
#X obj 84 229 makenote 0 100 400;
#X msg 122 157 38;
#X obj 122 136 euclid 2 16 64;
#X obj 84 206 pack 100 400;
#X msg 84 145 36;
#X obj 204 185 random 3;
#X msg 204 231 39;
#X obj 204 207 sel 0 1 2;
#X msg 234 232 40;
#X msg 263 233 44;
#X obj 204 256 pack 60 400;
#X text 92 54 other drums;
#X obj 85 99 spigot;
#X obj 142 83 tgl 15 0 empty empty empty 17 7 0 10 -262144 -1 -1 0
1;
#X text 927 505 Guitar Delay;
#X text 627 44 aux perc;
#X text 399 55 real drums (audio clip);
#X obj 169 61 r odrums;
#X msg -116 58 \; auxperc 0 \; drums 0 \; plucked 0 \; airsynth 0 \;
guitar 0 \; gdelay 0 \; odrums 0;
#X msg -103 380 \; gdelay 1;
#X msg -74 466 \; airsynth 1 \; odrums 1;
#X msg -29 389 \; odrums 0 \; airsynth 0 \; gdelay 0;
#X msg 21 453 \; odrums 1 \; airsynth 1 \; gdelay 1;
#X msg 41 335 \; drums 0 \; gdelay 1 \; plucked 0;
#X obj -121 314 sel 1 5 17 33 41 49 65 81 113;
#X connect 0 0 31 0;
#X connect 2 0 6 1;
#X connect 2 0 33 0;
#X connect 3 0 4 0;
#X connect 3 1 4 1;
#X connect 6 0 7 0;
#X connect 7 0 8 0;
#X connect 8 0 9 0;
#X connect 9 0 3 0;
#X connect 10 0 29 0;
#X connect 11 0 12 0;
#X connect 11 1 12 1;
#X connect 13 0 11 0;
#X connect 14 0 15 0;
#X connect 15 0 13 0;
#X connect 16 0 11 0;
#X connect 17 0 18 0;
#X connect 18 0 19 0;
#X connect 19 0 20 0;
#X connect 20 0 16 0;
#X connect 22 0 41 0;
#X connect 23 0 25 0;
#X connect 23 1 25 1;
#X connect 24 0 23 0;
#X connect 26 0 24 0;
#X connect 27 0 26 0;
#X connect 28 0 29 1;
#X connect 29 0 14 0;
#X connect 30 0 31 1;
#X connect 31 0 56 0;
#X connect 32 0 2 0;
#X connect 33 0 9 2;
#X connect 34 0 13 2;
#X connect 35 0 24 2;
#X connect 40 0 41 1;
#X connect 41 0 27 0;
#X connect 42 0 43 0;
#X connect 43 0 45 0;
#X connect 44 0 43 1;
#X connect 44 0 55 0;
#X connect 45 0 47 0;
#X connect 45 0 49 0;
#X connect 46 0 48 0;
#X connect 47 0 46 1;
#X connect 48 0 37 0;
#X connect 48 1 38 0;
#X connect 48 2 39 0;
#X connect 49 0 46 0;
#X connect 51 0 50 0;
#X connect 52 0 50 0;
#X connect 55 0 51 0;
#X connect 55 1 52 0;
#X connect 56 0 6 0;
#X connect 56 1 32 0;
#X connect 59 0 61 0;
#X connect 60 0 61 1;
#X connect 61 0 67 0;
#X connect 62 0 112 0;
#X connect 63 0 64 0;
#X connect 63 1 64 1;
#X connect 65 0 62 0;
#X connect 66 0 71 0;
#X connect 67 0 66 0;
#X connect 67 1 65 0;
#X connect 68 0 79 0;
#X connect 68 1 69 1;
#X connect 69 0 66 1;
#X connect 69 0 70 0;
#X connect 70 0 77 0;
#X connect 71 0 87 0;
#X connect 72 0 68 0;
#X connect 72 0 74 0;
#X connect 73 0 75 0;
#X connect 74 0 75 0;
#X connect 74 1 75 1;
#X connect 75 0 78 0;
#X connect 77 0 76 0;
#X connect 78 0 81 2;
#X connect 79 0 69 0;
#X connect 81 0 63 0;
#X connect 82 0 84 0;
#X connect 82 1 84 1;
#X connect 83 0 82 0;
#X connect 85 0 83 0;
#X connect 87 0 88 0;
#X connect 88 0 81 0;
#X connect 88 0 85 0;
#X connect 89 0 114 0;
#X connect 90 0 106 0;
#X connect 90 1 106 1;
#X connect 91 0 89 0;
#X connect 92 0 97 0;
#X connect 93 0 92 0;
#X connect 93 1 91 0;
#X connect 94 0 113 0;
#X connect 94 0 141 0;
#X connect 94 1 95 1;
#X connect 95 0 92 1;
#X connect 95 0 96 0;
#X connect 96 0 103 0;
#X connect 97 0 111 0;
#X connect 98 0 94 0;
#X connect 99 0 101 0;
#X connect 100 0 101 0;
#X connect 100 1 101 1;
#X connect 101 0 104 0;
#X connect 102 0 116 0;
#X connect 103 0 102 0;
#X connect 104 0 105 2;
#X connect 105 0 90 0;
#X connect 107 0 109 0;
#X connect 108 0 109 1;
#X connect 109 0 93 0;
#X connect 110 0 105 0;
#X connect 111 0 110 0;
#X connect 112 0 72 0;
#X connect 113 0 95 0;
#X connect 114 0 98 0;
#X connect 115 0 117 0;
#X connect 116 0 117 0;
#X connect 116 1 117 1;
#X connect 117 0 118 0;
#X connect 118 0 120 1;
#X connect 118 0 121 0;
#X connect 119 0 124 0;
#X connect 120 0 119 0;
#X connect 121 0 122 0;
#X connect 121 1 123 0;
#X connect 122 0 120 0;
#X connect 123 0 120 0;
#X connect 124 0 125 0;
#X connect 127 0 138 0;
#X connect 129 0 40 0;
#X connect 131 0 30 0;
#X connect 133 0 28 0;
#X connect 135 0 60 0;
#X connect 136 0 108 0;
#X connect 137 0 44 0;
#X connect 138 0 169 0;
#X connect 139 0 138 1;
#X connect 140 0 100 0;
#X connect 141 0 140 0;
#X connect 142 0 157 0;
#X connect 143 0 149 0;
#X connect 145 0 144 0;
#X connect 145 1 144 1;
#X connect 146 0 148 0;
#X connect 147 0 146 0;
#X connect 147 0 150 0;
#X connect 148 0 145 0;
#X connect 149 0 148 0;
#X connect 150 0 152 0;
#X connect 151 0 155 0;
#X connect 152 0 151 0;
#X connect 152 1 153 0;
#X connect 152 2 154 0;
#X connect 153 0 155 0;
#X connect 154 0 155 0;
#X connect 155 0 145 0;
#X connect 157 0 143 0;
#X connect 157 0 147 0;
#X connect 158 0 157 1;
#X connect 162 0 158 0;
#X connect 169 0 128 0;
#X connect 169 1 164 0;
#X connect 169 2 130 0;
#X connect 169 3 132 0;
#X connect 169 4 134 0;
#X connect 169 5 165 0;
#X connect 169 6 166 0;
#X connect 169 7 167 0;
#X connect 169 8 168 0;
