#N canvas 930 38 1156 817 10;
#X obj -14 119 r beat64;
#X obj -29 24 allnotelengths;
#X floatatom 11 221 5 0 32 1 Desired_hits - -;
#X floatatom 36 240 5 0 0 1 offset - -;
#X obj -14 419 makenote;
#X obj -14 445 noteout 1;
#N canvas 0 0 450 300 (subpatch) 0;
#X array NLconv 32 float 3;
#A 0 0.621091 2.46726 4.35356 4.35356 6.32013 7.28334 8.4071 8.32683
8.2867 8.2867 8.32683 8.36697 8.4071 8.36697 8.36697 8.32683 10.3737
10.4138 10.3737 11.4573 11.4172 11.4172 11.3771 11.3771 11.2968 11.3369
11.4172 11.4573 11.4172 11.3369 11.3369 11.3369;
#X coords 0 12 32 0 50 50 1 0 0;
#X restore 56 19 graph;
#X obj -14 259 euclid 0 0 64;
#X obj -14 284 random 60;
#X obj -14 306 + 30;
#X obj -14 388 pack f 120 f;
#X obj 67 127 r beat64;
#X obj 306 113 r beat64;
#X obj 306 294 makenote;
#X obj 306 320 noteout 2;
#X obj 306 265 pack f 120 f;
#X obj 306 215 euclid 1 0 64;
#X text 301 88 just play the real drums every measure;
#X obj 635 49 r beat64;
#X obj 634 278 makenote;
#X obj 634 249 pack f 120 f;
#X obj 634 304 noteout 3;
#X msg 306 240 36;
#X obj 634 166 euclid 16 0 64;
#X obj 634 192 random 32;
#X obj 634 217 + 36;
#X obj 378 403 r beat64;
#X obj 379 572 makenote;
#X obj 379 543 pack f 120 f;
#X obj 379 460 euclid 1 0 64;
#X msg 210 207 stop;
#X obj 210 112 r beat64;
#X obj 210 140 euclid 8 0 64;
#X obj 210 163 random 8;
#X obj 210 184 sel 0;
#X text 211 60 every 8th note has a 1/8 chance of dropping main drum
line;
#X obj 379 598 noteout 4;
#X obj 379 490 random 8;
#X obj 379 515 + 36;
#X obj 220 331 r beat64;
#X obj 220 460 + 1;
#X obj 220 595 line;
#X obj 220 520 cycle 2;
#X obj 221 706 ctlout 1 1;
#X msg 220 491 1;
#X obj 220 410 euclid 16 0 64;
#X obj 220 619 * 128;
#X obj 220 642 + 0;
#X msg 220 542 0;
#X msg 259 543 1;
#X obj 220 569 pack f f;
#X obj 295 517 r beat64;
#X text 181 727 just for wah wah filter control :(;
#X obj 637 353 r beat64;
#X obj 637 479 makenote;
#X obj 637 448 pack f 120 f;
#X obj 637 505 noteout 5;
#X msg 637 425 36;
#X obj 637 400 euclid 1 0 64;
#X obj 668 79 tgl 15 0 empty empty empty 17 7 0 10 -262144 -1 -1 0
4;
#X obj 635 110 spigot;
#X obj 337 135 tgl 15 0 empty empty empty 17 7 0 10 -262144 -1 -1 0
4;
#X obj 306 154 spigot;
#X obj 19 141 tgl 15 0 empty empty empty 17 7 0 10 -262144 -1 -1 0
4;
#X obj -14 172 spigot;
#N canvas 510 332 450 300 ra6 0;
#X obj 172 37 inlet;
#X obj 172 260 outlet;
#X obj 174 140 sel 0 1 2 3 4;
#X msg 237 164 16;
#X msg 250 191 32;
#X obj 174 120 random 6;
#X msg 205 162 8;
#X msg 174 164 4;
#X msg 187 188 8;
#X msg 220 189 16;
#X obj 174 225 f;
#X obj 174 97 euclid 16 0 64;
#X connect 0 0 11 0;
#X connect 2 0 7 0;
#X connect 2 1 8 0;
#X connect 2 2 6 0;
#X connect 2 3 9 0;
#X connect 2 4 3 0;
#X connect 2 5 4 0;
#X connect 3 0 10 0;
#X connect 4 0 10 0;
#X connect 5 0 2 0;
#X connect 6 0 10 0;
#X connect 7 0 10 0;
#X connect 8 0 10 0;
#X connect 9 0 10 0;
#X connect 10 0 1 0;
#X connect 11 0 5 0;
#X restore 68 193 pd ra6;
#X obj 68 170 spigot;
#N canvas 668 420 450 300 nlc 0;
#X floatatom 81 85 5 0 12 0 - - -;
#X obj 63 66 r nls;
#X floatatom 63 150 5 0 0 0 - - -;
#X obj 81 105 t b f;
#X obj 63 128 zl nth 0;
#X text 99 152 note lengths;
#X obj 81 43 tabread NLconv;
#X obj 63 186 outlet;
#X obj 81 15 inlet;
#X text 188 42 convert desired hits to notelength;
#X connect 0 0 3 0;
#X connect 1 0 4 0;
#X connect 2 0 7 0;
#X connect 3 0 4 0;
#X connect 3 1 4 1;
#X connect 4 0 2 0;
#X connect 6 0 0 0;
#X connect 8 0 6 0;
#X restore 55 356 pd nlc;
#N canvas 801 371 450 300 wholenotelength 0;
#X obj 146 10 r nls;
#X floatatom 146 118 5 0 0 0 - - -;
#X obj 164 73 t b f;
#X obj 146 96 zl nth 0;
#X text 182 117 note lengths;
#X msg 164 53 1;
#X obj 146 146 outlet;
#X connect 0 0 3 0;
#X connect 0 0 5 0;
#X connect 1 0 6 0;
#X connect 2 0 3 0;
#X connect 2 1 3 1;
#X connect 3 0 1 0;
#X connect 5 0 2 0;
#X restore 375 243 pd wholenotelength;
#N canvas 1069 146 450 522 ra12 0;
#X obj 168 36 inlet;
#X obj 151 242 r nls;
#X floatatom 151 378 5 0 0 0 - - -;
#X obj 169 333 t b f;
#X obj 151 356 zl nth 0;
#X text 187 380 note lengths;
#X obj 169 313 tabread NLconv;
#X obj 169 191 f;
#X msg 169 139 1;
#X msg 182 163 2;
#X obj 169 115 sel 0 1 2 3 4 5 6 7 8 9 10;
#X obj 169 95 random 11;
#X msg 200 137 4;
#X msg 214 164 6;
#X msg 232 139 7;
#X msg 343 170 32;
#X msg 330 143 20;
#X msg 312 168 16;
#X msg 298 141 12;
#X msg 280 167 11;
#X msg 267 143 9;
#X msg 245 166 8;
#X obj 169 265 t b;
#X obj 169 286 random 12;
#X obj 169 70 euclid 16 0 64;
#X obj 151 404 outlet;
#X text 38 156 11 random notelengths;
#X obj 25 410 outlet;
#X text 20 439 random desired hits;
#X text 208 411 random note lengths;
#X connect 0 0 24 0;
#X connect 1 0 4 0;
#X connect 2 0 25 0;
#X connect 3 0 4 0;
#X connect 3 1 4 1;
#X connect 4 0 2 0;
#X connect 6 0 3 0;
#X connect 7 0 22 0;
#X connect 7 0 27 0;
#X connect 8 0 7 0;
#X connect 9 0 7 0;
#X connect 10 0 8 0;
#X connect 10 1 9 0;
#X connect 10 2 12 0;
#X connect 10 3 13 0;
#X connect 10 4 14 0;
#X connect 10 5 21 0;
#X connect 10 6 20 0;
#X connect 10 7 19 0;
#X connect 10 8 18 0;
#X connect 10 9 17 0;
#X connect 10 10 16 0;
#X connect 10 11 15 0;
#X connect 11 0 10 0;
#X connect 12 0 7 0;
#X connect 13 0 7 0;
#X connect 14 0 7 0;
#X connect 15 0 7 0;
#X connect 16 0 7 0;
#X connect 17 0 7 0;
#X connect 18 0 7 0;
#X connect 19 0 7 0;
#X connect 20 0 7 0;
#X connect 21 0 7 0;
#X connect 22 0 23 0;
#X connect 23 0 6 0;
#X connect 24 0 11 0;
#X restore 663 137 pd ra12;
#N canvas 953 455 450 300 ra3 0;
#X obj 165 27 inlet;
#X obj 94 253 outlet;
#X obj 119 113 r nls;
#X floatatom 119 203 5 0 0 0 - - -;
#X obj 137 157 t b f;
#X obj 119 180 zl nth 0;
#X text 155 201 note lengths;
#X obj 166 69 euclid 2 0 64;
#X obj 166 90 random 3;
#X obj 166 111 + 1;
#X obj 166 133 * 2;
#X connect 0 0 7 0;
#X connect 2 0 5 0;
#X connect 3 0 1 0;
#X connect 4 0 5 0;
#X connect 4 1 5 1;
#X connect 5 0 3 0;
#X connect 7 0 8 0;
#X connect 8 0 9 0;
#X connect 9 0 10 0;
#X connect 10 0 4 0;
#X restore 295 546 pd ra3;
#N canvas 801 371 450 300 wholenotelength 0;
#X obj 146 10 r nls;
#X floatatom 146 118 5 0 0 0 - - -;
#X obj 164 73 t b f;
#X obj 146 96 zl nth 0;
#X text 182 117 note lengths;
#X msg 164 53 1;
#X obj 146 146 outlet;
#X connect 0 0 3 0;
#X connect 0 0 5 0;
#X connect 1 0 6 0;
#X connect 2 0 3 0;
#X connect 2 1 3 1;
#X connect 3 0 1 0;
#X connect 5 0 2 0;
#X restore 448 514 pd wholenotelength;
#N canvas 801 371 450 300 wholenotelength 0;
#X obj 146 10 r nls;
#X floatatom 146 118 5 0 0 0 - - -;
#X obj 164 73 t b f;
#X obj 146 96 zl nth 0;
#X text 182 117 note lengths;
#X msg 164 53 1;
#X obj 146 146 outlet;
#X connect 0 0 3 0;
#X connect 0 0 5 0;
#X connect 1 0 6 0;
#X connect 2 0 3 0;
#X connect 2 1 3 1;
#X connect 3 0 1 0;
#X connect 5 0 2 0;
#X restore 706 426 pd wholenotelength;
#X text 639 337 Guitar;
#X obj 220 435 random 5;
#X obj 253 354 tgl 15 0 empty empty empty 17 7 0 10 -262144 -1 -1 0
4;
#X obj 220 385 spigot;
#X obj 378 434 spigot;
#X text 379 621 airy synth (kinda);
#X text 697 48 melody kinda;
#X obj 634 707 ctlout 2 1;
#X obj 713 707 ctlout 3 1;
#X obj 791 708 ctlout 4 1;
#X obj 701 358 tgl 15 0 empty empty empty 17 7 0 10 -262144 -1 -1 4
4;
#X obj 636 375 spigot;
#X obj 637 535 r beat64;
#X obj 637 576 spigot;
#X obj 667 556 tgl 15 0 empty empty empty 17 7 0 10 -262144 -1 -1 1
1;
#X obj 637 600 euclid 2 0 64;
#X obj 638 649 pack f f;
#X obj 711 624 random 128;
#X obj 638 672 route 0 1 2;
#X obj 637 625 random 6;
#X obj 875 709 ctlout 5 1;
#X msg 875 678 0;
#X msg 904 677 100;
#X text 881 730 on/off delay unit;
#X text 635 730 L \, L+R \, and R delay units' time amount;
#X obj 875 645 sel 0 1;
#X connect 0 0 64 0;
#X connect 2 0 7 1;
#X connect 2 0 67 0;
#X connect 3 0 7 2;
#X connect 4 0 5 0;
#X connect 4 1 5 1;
#X connect 7 0 8 0;
#X connect 8 0 9 0;
#X connect 9 0 10 0;
#X connect 10 0 4 0;
#X connect 11 0 66 0;
#X connect 12 0 62 0;
#X connect 13 0 14 0;
#X connect 13 1 14 1;
#X connect 15 0 13 0;
#X connect 16 0 22 0;
#X connect 18 0 60 0;
#X connect 19 0 21 0;
#X connect 19 1 21 1;
#X connect 20 0 19 0;
#X connect 22 0 15 0;
#X connect 23 0 24 0;
#X connect 24 0 25 0;
#X connect 25 0 20 0;
#X connect 26 0 77 0;
#X connect 27 0 36 0;
#X connect 27 1 36 1;
#X connect 28 0 27 0;
#X connect 29 0 37 0;
#X connect 30 0 13 0;
#X connect 31 0 32 0;
#X connect 32 0 33 0;
#X connect 33 0 34 0;
#X connect 34 0 30 0;
#X connect 37 0 38 0;
#X connect 38 0 28 0;
#X connect 39 0 76 0;
#X connect 40 0 29 1;
#X connect 40 0 44 0;
#X connect 41 0 46 0;
#X connect 42 0 48 0;
#X connect 42 1 49 0;
#X connect 44 0 42 0;
#X connect 45 0 74 0;
#X connect 46 0 47 0;
#X connect 47 0 43 0;
#X connect 48 0 50 0;
#X connect 49 0 50 0;
#X connect 50 0 41 0;
#X connect 51 0 70 0;
#X connect 53 0 84 0;
#X connect 54 0 56 0;
#X connect 54 1 56 1;
#X connect 55 0 54 0;
#X connect 57 0 55 0;
#X connect 58 0 57 0;
#X connect 59 0 60 1;
#X connect 60 0 23 0;
#X connect 60 0 69 0;
#X connect 61 0 62 1;
#X connect 62 0 16 0;
#X connect 63 0 64 1;
#X connect 63 0 66 1;
#X connect 64 0 7 0;
#X connect 65 0 2 0;
#X connect 66 0 65 0;
#X connect 67 0 10 2;
#X connect 68 0 15 2;
#X connect 69 0 23 1;
#X connect 69 1 20 2;
#X connect 70 0 50 1;
#X connect 71 0 28 2;
#X connect 72 0 55 2;
#X connect 74 0 40 0;
#X connect 75 0 76 1;
#X connect 75 0 77 1;
#X connect 76 0 45 0;
#X connect 77 0 29 0;
#X connect 83 0 84 1;
#X connect 84 0 58 0;
#X connect 85 0 86 0;
#X connect 86 0 88 0;
#X connect 87 0 86 1;
#X connect 87 0 98 0;
#X connect 88 0 90 0;
#X connect 88 0 92 0;
#X connect 89 0 91 0;
#X connect 90 0 89 1;
#X connect 91 0 80 0;
#X connect 91 1 81 0;
#X connect 91 2 82 0;
#X connect 92 0 89 0;
#X connect 94 0 93 0;
#X connect 95 0 93 0;
#X connect 98 0 94 0;
#X connect 98 1 95 0;
