#N canvas 250 382 953 694 10;
#X obj 17 415 osc~;
#X obj 141 473 *~;
#X obj 142 11 bng 15 250 50 0 empty empty empty 17 7 0 10 -262144 -1
-1;
#X obj 18 387 line~;
#X obj 18 84 t b b b;
#X msg 278 217 1;
#X msg 244 130 0;
#X text 63 357 ramp time;
#X text 64 176 start;
#X text -7 286 end;
#X obj 244 331 vline~;
#X obj 244 83 t b b b b;
#X obj 165 205 knob 32 32 0 500 0 0 \$0decays \$0decayr decay 0 -8
0 8 -262144 -1 -1 0 1;
#X obj 165 145 knob 32 32 0 3 0 0 \$0clicks \$0clickr click 0 -8 0
8 -262144 -1 -1 0 1;
#X obj 115 145 knob 32 32 0 1000 0 0 \$0starts \$0startr start 0 -8
0 8 -262144 -1 -1 0 1;
#X obj 115 205 knob 32 32 15 100 0 0 \$0ends \$0endr end 0 -8 0 8 -262144
-1 -1 0 1;
#X obj 115 264 knob 32 32 0 500 0 0 \$0ramps \$0rampr ramp 0 -8 0 8
-262144 -1 -1 0 1;
#X text 114 108 pitch;
#X text 164 107 amp;
#X floatatom 165 453 5 0 0 0 - - -;
#X obj 165 501 line~;
#X msg 165 476 \$1 10;
#X obj 142 527 *~;
#X obj 165 264 knob 32 32 0 1 0 0 \$0levels \$0levelr level 0 -8 0
8 -262144 -1 -1 0 1;
#X obj 141 563 outlet~;
#X text 180 -10 trigger in;
#X obj 142 -13 inlet;
#N canvas 611 445 735 578 numbercruncher 0;
#X obj 87 10 inlet;
#X obj 617 296 loadbang;
#X obj 173 535 outlet;
#X text 328 52 Sends creation argument list to the GOP;
#X text 102 178 Receives GOP values and sends them on again to the
saver;
#X obj 245 225 t b f f;
#X obj 37 226 t b f f;
#X floatatom 297 251 5 0 0 0 - - -;
#X floatatom 87 254 5 0 0 0 - - -;
#X obj 87 44 unpack s f s f s f s f s f s f;
#X obj 370 138 s \$0clickr;
#X obj 582 138 s \$0levelr;
#X obj 485 137 s \$0decayr;
#X obj 36 145 s \$0startr;
#X obj 150 141 s \$0endr;
#X obj 246 138 s \$0rampr;
#X obj 173 492 pack s f s f s f s f s f s f;
#X msg 106 372 symbol start;
#X obj 37 197 r \$0starts;
#X obj 149 196 r \$0ends;
#X obj 149 227 t b f f;
#X floatatom 194 256 5 0 0 0 - - -;
#X msg 173 400 symbol end;
#X msg 229 423 symbol ramp;
#X obj 245 196 r \$0ramps;
#X obj 579 225 t b f f;
#X obj 371 226 t b f f;
#X floatatom 631 251 5 0 0 0 - - -;
#X floatatom 421 254 5 0 0 0 - - -;
#X obj 483 227 t b f f;
#X floatatom 528 256 5 0 0 0 - - -;
#X obj 371 197 r \$0clicks;
#X obj 483 196 r \$0decays;
#X obj 579 196 r \$0levels;
#X msg 277 370 symbol click;
#X msg 344 398 symbol decay;
#X msg 423 434 symbol level;
#X obj 617 321 t b b b b b b;
#X connect 0 0 9 0;
#X connect 1 0 37 0;
#X connect 5 0 17 0;
#X connect 5 1 16 5;
#X connect 5 2 7 0;
#X connect 6 0 17 0;
#X connect 6 1 16 1;
#X connect 6 2 8 0;
#X connect 9 1 13 0;
#X connect 9 3 14 0;
#X connect 9 5 15 0;
#X connect 9 7 10 0;
#X connect 9 9 12 0;
#X connect 9 11 11 0;
#X connect 16 0 2 0;
#X connect 17 0 16 0;
#X connect 18 0 6 0;
#X connect 19 0 20 0;
#X connect 20 0 17 0;
#X connect 20 1 16 3;
#X connect 20 2 21 0;
#X connect 22 0 16 2;
#X connect 23 0 16 4;
#X connect 24 0 5 0;
#X connect 25 0 17 0;
#X connect 25 1 16 11;
#X connect 25 2 27 0;
#X connect 26 0 17 0;
#X connect 26 1 16 7;
#X connect 26 2 28 0;
#X connect 29 0 17 0;
#X connect 29 1 16 9;
#X connect 29 2 30 0;
#X connect 31 0 26 0;
#X connect 32 0 29 0;
#X connect 33 0 25 0;
#X connect 34 0 16 6;
#X connect 35 0 16 8;
#X connect 36 0 16 10;
#X connect 37 0 17 0;
#X connect 37 1 22 0;
#X connect 37 2 23 0;
#X connect 37 3 34 0;
#X connect 37 4 35 0;
#X connect 37 5 36 0;
#X restore 371 86 pd numbercruncher;
#X obj 344 -61 loadbang;
#X obj 371 55 list trim;
#X obj 371 32 list;
#X obj 344 -17 t b b;
#X msg 344 6 1;
#X obj 371 112 spigot;
#X text 412 105 This spigot is necessary because if one [canvasargs]
object feeds the creation argument straight into another it will cause
PD to crash.;
#X obj 371 7 iemguts/canvasargs;
#X obj 371 157 iemguts/canvasargs;
#X text 314 277 load time1 \; execute jump1 at time1 \; load time2
\; execute jump2 at time2;
#X text 295 166 time2;
#X text 304 215 jump1;
#X text 268 129 jump2;
#X text 329 250 time1;
#X text 441 -54 state-save: thanks to LiamG!;
#X obj 261 168 f;
#X obj 295 249 f;
#X obj 45 335 f;
#X obj 18 289 f;
#X obj 57 195 f;
#X text 138 303 kick~;
#X connect 0 0 1 0;
#X connect 1 0 22 0;
#X connect 2 0 4 0;
#X connect 2 0 11 0;
#X connect 3 0 0 0;
#X connect 4 0 46 0;
#X connect 4 1 45 0;
#X connect 4 2 47 0;
#X connect 5 0 10 0;
#X connect 6 0 10 0;
#X connect 10 0 1 1;
#X connect 11 0 6 0;
#X connect 11 1 43 0;
#X connect 11 2 5 0;
#X connect 11 3 44 0;
#X connect 12 0 43 1;
#X connect 13 0 44 1;
#X connect 14 0 47 1;
#X connect 15 0 46 1;
#X connect 16 0 45 1;
#X connect 19 0 21 0;
#X connect 20 0 22 1;
#X connect 21 0 20 0;
#X connect 22 0 24 0;
#X connect 23 0 19 0;
#X connect 26 0 2 0;
#X connect 27 0 33 0;
#X connect 28 0 31 0;
#X connect 29 0 27 0;
#X connect 30 0 29 0;
#X connect 31 0 32 0;
#X connect 31 1 35 0;
#X connect 32 0 33 1;
#X connect 33 0 36 0;
#X connect 35 0 30 0;
#X connect 43 0 10 1;
#X connect 43 0 10 2;
#X connect 44 0 10 1;
#X connect 45 0 3 1;
#X connect 46 0 3 0;
#X connect 47 0 3 0;
#X coords 0 -1 1 1 110 220 2 100 100;
