#N canvas 947 478 450 300 10;
#X obj 90 222 makenote;
#X obj 89 247 noteout 1;
#X obj 89 9 vsl 15 128 0 127 0 0 empty empty empty 0 -9 0 10 -262144
-1 -1 5900 1;
#X obj 91 168 change;
#X obj 91 147 int;
#X floatatom 171 173 5 0 0 0 - - -;
#X obj 170 29 tgl 15 0 empty empty empty 17 7 0 10 -262144 -1 -1 1
1;
#X obj 90 198 pack f 100 200;
#X obj 170 96 random 60;
#X obj 169 119 + 30;
#X obj 170 74 metro 250;
#X obj 329 222 makenote;
#X obj 329 198 pack f 100 200;
#X obj 328 247 noteout 2;
#X obj 288 29 tgl 15 0 empty empty empty 17 7 0 10 -262144 -1 -1 1
1;
#X obj 288 74 metro 250;
#X obj 288 96 random 32;
#X floatatom 410 171 5 0 0 0 - - -;
#X obj 287 119 + 40;
#X connect 0 0 1 0;
#X connect 0 1 1 1;
#X connect 2 0 4 0;
#X connect 3 0 7 0;
#X connect 4 0 3 0;
#X connect 5 0 7 2;
#X connect 6 0 10 0;
#X connect 7 0 0 0;
#X connect 8 0 9 0;
#X connect 9 0 7 0;
#X connect 10 0 8 0;
#X connect 11 0 13 0;
#X connect 11 1 13 1;
#X connect 12 0 11 0;
#X connect 14 0 15 0;
#X connect 15 0 16 0;
#X connect 16 0 18 0;
#X connect 17 0 12 2;
#X connect 18 0 12 0;
