#N canvas 484 301 1086 431 10;
#X obj 220 64 tgl 15 0 empty empty empty 17 7 0 10 -262144 -1 -1 1
1;
#X obj 122 330 makenote;
#X obj 122 287 pack f f f;
#X msg 150 265 100;
#X msg 179 266 250;
#X obj 122 206 metro 500;
#X obj 207 362 ctlout 1;
#X obj 210 155 hsl 50 15 0 127 0 0 empty empty Delay_Amount -2 -8 0
10 -262144 -1 -1 4400 1;
#X obj 122 309 spigot;
#X obj 215 403 tgl 15 0 empty empty empty 17 7 0 10 -262144 -1 -1 1
1;
#X obj 207 332 spigot;
#X obj 295 334 spigot;
#X obj 295 190 hradio 15 1 0 9 empty empty empty 0 -8 0 10 -262144
-1 -1 3;
#X obj 295 364 ctlout 2;
#X obj 295 283 * 127;
#X obj 295 309 / 8;
#X obj 122 367 noteout 1;
#X obj 25 289 pack f f f;
#X msg 82 266 250;
#X obj 25 330 makenote;
#X obj 25 310 spigot;
#X obj 25 368 noteout 2;
#X obj 25 212 metro 250;
#X msg 53 268 100;
#X obj 25 241 random 75;
#X obj 122 235 random 75;
#X obj 295 135 random 10;
#X obj 394 366 ctlout 3;
#X obj 390 329 spigot;
#X msg 375 303 0;
#X msg 407 303 100;
#X obj 539 293 random 127;
#X obj 462 370 ctlout 4;
#X obj 467 337 spigot;
#X text 417 396 beatrepeats;
#X msg 498 304 0;
#X msg 463 302 100;
#X obj 295 112 metro 1000;
#X obj 541 365 ctlout 5;
#X obj 458 172 random 10;
#X obj 458 194 / 10;
#X obj 458 215 > 0.5;
#X obj 375 229 sel 1;
#X msg 375 251 1;
#X obj 375 275 cycle 4;
#X obj 467 250 tgl 15 0 empty empty empty 17 7 0 10 -262144 -1 -1 0
1;
#X connect 0 0 5 0;
#X connect 0 0 22 0;
#X connect 0 0 37 0;
#X connect 1 0 16 0;
#X connect 1 1 16 1;
#X connect 2 0 8 0;
#X connect 3 0 2 1;
#X connect 4 0 2 2;
#X connect 5 0 25 0;
#X connect 7 0 10 0;
#X connect 8 0 1 0;
#X connect 9 0 8 1;
#X connect 9 0 10 1;
#X connect 9 0 11 1;
#X connect 9 0 20 1;
#X connect 9 0 28 1;
#X connect 9 0 33 1;
#X connect 10 0 6 0;
#X connect 11 0 13 0;
#X connect 12 0 14 0;
#X connect 14 0 15 0;
#X connect 15 0 11 0;
#X connect 17 0 20 0;
#X connect 18 0 17 2;
#X connect 19 0 21 0;
#X connect 19 1 21 1;
#X connect 20 0 19 0;
#X connect 22 0 24 0;
#X connect 22 0 39 0;
#X connect 23 0 17 1;
#X connect 24 0 18 0;
#X connect 24 0 23 0;
#X connect 24 0 17 0;
#X connect 25 0 4 0;
#X connect 25 0 3 0;
#X connect 25 0 2 0;
#X connect 26 0 12 0;
#X connect 28 0 27 0;
#X connect 29 0 28 0;
#X connect 30 0 28 0;
#X connect 33 0 32 0;
#X connect 35 0 33 0;
#X connect 36 0 33 0;
#X connect 37 0 26 0;
#X connect 39 0 40 0;
#X connect 40 0 41 0;
#X connect 41 0 42 0;
#X connect 41 0 45 0;
#X connect 42 0 43 0;
#X connect 43 0 44 0;
#X connect 44 0 29 0;
#X connect 44 1 30 0;
#X connect 44 2 36 0;
#X connect 44 3 35 0;
