#N canvas 0 25 548 526 10;
#X obj 2 -1 osc~ 330;
#X obj 63 -1 osc~ 180;
#X obj 109 -74 vline~;
#X obj 8 -75 vline~;
#X obj 4 41 *~;
#X obj 72 41 *~;
#X obj 23 -48 *~;
#X obj 108 -47 *~;
#X obj 236 21 noise~;
#X obj 231 -74 vline~;
#X obj 230 -47 *~;
#X obj 332 -74 vline~;
#X obj 331 -47 *~;
#X obj 216 87 *~;
#X obj 292 126 *~;
#X obj 217 126 *~ 0.5;
#X obj 73 69 *~ 0.75;
#X obj 236 50 lop~ 1000;
#X obj 256 87 hip~ 950;
#X msg 108 -94 1 0 0 \, 0 70 0;
#X msg 8 -95 1 0 0 \, 0 40 0;
#X msg 230 -94 1 0 0 \, 0 50 0;
#X msg 332 -94 1 0 0 \, 0 35 0;
#X obj 456 46 switch~;
#X obj 456 26 tgl 15 0 empty empty empty 0 -6 0 10 -262144 -1 -1 0
1;
#X msg 456 -17 1;
#X msg 482 -17 0;
#X floatatom 482 -57 5 0 0 0 - - -;
#X obj 482 -39 sel 0;
#X obj 167 -197 t b b b;
#X msg 482 -101 1 0 \, 0 75;
#X obj 482 -79 line 1 75;
#X msg 186 -133 bang;
#X text 399 59 audio computation on/off;
#X text 172 -111 envelopes;
#X text 499 289 sg 2008;
#X obj 203 253 *~ 1;
#X obj 202 278 outlet~;
#X obj 167 -220 inlet;
#X connect 0 0 4 0;
#X connect 1 0 5 0;
#X connect 2 0 7 0;
#X connect 2 0 7 1;
#X connect 3 0 6 0;
#X connect 3 0 6 1;
#X connect 4 0 36 0;
#X connect 5 0 16 0;
#X connect 6 0 4 1;
#X connect 7 0 5 1;
#X connect 8 0 17 0;
#X connect 9 0 10 0;
#X connect 9 0 10 1;
#X connect 10 0 13 1;
#X connect 11 0 12 0;
#X connect 11 0 12 1;
#X connect 12 0 14 1;
#X connect 13 0 15 0;
#X connect 14 0 36 0;
#X connect 15 0 36 0;
#X connect 16 0 36 0;
#X connect 17 0 13 0;
#X connect 17 0 18 0;
#X connect 18 0 14 0;
#X connect 19 0 2 0;
#X connect 20 0 3 0;
#X connect 21 0 9 0;
#X connect 22 0 11 0;
#X connect 24 0 23 0;
#X connect 25 0 24 0;
#X connect 26 0 24 0;
#X connect 27 0 28 0;
#X connect 28 0 26 0;
#X connect 29 0 30 0;
#X connect 29 1 32 0;
#X connect 29 2 25 0;
#X connect 30 0 31 0;
#X connect 31 0 27 0;
#X connect 32 0 20 0;
#X connect 32 0 19 0;
#X connect 32 0 21 0;
#X connect 32 0 22 0;
#X connect 36 0 37 0;
#X connect 38 0 29 0;
